<svg xmlns="http://www.w3.org/2000/svg" viewBox="0 0 24 24" xml:space="preserve">
    <path d="M5.9 18.9c.1.1.2.1.3.1h11.6c.1 0 .2 0 .3-.1.4-.3.8-.6 1.2-1 2.5-2.5 3.5-5.5 3.1-9-.4-2.4-1.5-4.5-3.4-6.2C16.6.5 13.7-.4 10.5.1 8 .5 6 1.6 4.3 3.4 2 5.9 1.2 8.9 1.7 12.2c.5 2.8 1.9 5 4.2 6.7M17.8 8.1c.4 0 .6.3.6.6 0 .4-.3.6-.6.6-.4 0-.6-.3-.6-.6-.1-.3.2-.6.6-.6m-3-5.5c1.2 0 2.1 1 2.1 2.1s-.9 2.1-2.1 2.1-2.1-.9-2.1-2.1.9-2.2 2.1-2.1M10.2 2c.2 0 .4.2.4.4s-.2.4-.4.4-.4-.2-.4-.4.2-.4.4-.4m-6.3 8.2c0 .2-.2.4-.4.4s-.4-.1-.4-.3v-.2c.1-1.4.5-2.7 1.1-3.9C5 4.8 6 3.6 7.4 2.7c.2-.1.3-.2.5-.2.2-.1.3 0 .4.1.1.2.1.4 0 .5s-.2.2-.3.2c-1.1.8-2.1 1.8-2.9 3-.7 1-1.1 2.2-1.2 3.4zm16.7 12.4c-.5-.8-1-1.5-1.4-2.3-.3-.4-.6-.6-1.1-.6H5.7c-.4 0-.6.1-.8.5s-.5.8-.7 1.1l-.9 1.5c-.1.2-.2.4-.1.6.1.3.4.6.8.6h16.1c.6 0 .9-.5.7-1.1-.1-.1-.1-.2-.2-.3"/>
  </svg>
  