<svg xmlns="http://www.w3.org/2000/svg" viewBox="0 0 24 24">
	<path d="m18.7 23c0-.6-.1-1.2-.1-1.8 0-.5-.1-.9-.1-1.4-.1-.8-.1-1.6-.2-2.3 0-.6-.1-1.1-.1-1.7-.1-.7-.1-1.3-.1-2v-1l-.3-3.3c-.1-1.1-.1-2.3-.2-3.4 0-.3 0-.6-.1-.9-.1-.9-.3-1.8-.4-2.7-.1-.5-.2-1-.6-1.4-.6-.6-1.4-.9-2.3-.7-.5.1-1 .2-1.4.3h-.4c-.3-.1-.5-.1-.7.1-.1.1-.1.1-.2.1-.3-.1-.7-.2-1.1-.3-.7-.2-1.3-.2-2 .2-.8.3-1.2 1-1.4 1.8-.1.7-.1 1.3-.2 2s-.1 1.4-.1 2.1c0 .6-.1 1.1-.1 1.7-.1.6-.1 1.2-.2 1.8-.1.5-.1 1-.1 1.4s-.1.7-.1 1.1c-.2.8-.2 1.6-.3 2.3s-.1 1.5-.2 2.2c-.1.6-.1 1.1-.1 1.7-.1.7-.1 1.5-.2 2.2 0 .6-.1 1.1-.1 1.7v.7c0 .1.1.2.2.2s.2-.1.3-.2.1-.2.1-.3c0-.3 0-.6.1-.9 0-.7 0-1.5.1-2.3.1-.7.1-1.3.2-2s.1-1.5.2-2.2v-.3c.1.2.2.3.4.4.2.2.2.3.2.6-.1 1.1-.1 2.1-.2 3.2-.1.2.1.3.3.3s.3-.2.3-.4c.1-.7.1-1.4.2-2.1 0-.3.1-.6.1-.8 0-.1 0-.2.2-.2.3 0 .7.1 1 .1.6-.1 1.1.1 1.6.1.5.1.9.1 1.4.1.3 0 .6-.1 1-.1.4-.1.8 0 1.2 0 .4.1.9.1 1.3.1.2 0 .4-.1.6-.1v.1c0 .5.1 1 .1 1.5 0 .4 0 .9.1 1.3 0 .2.2.4.4.4s.2-.1.2-.4c0-1.1-.1-2.1-.1-3.2v-.2c.2-.3.4-.6.7-.9v.1c0 .5.1 1 .1 1.5.1.8.1 1.6.2 2.4.1 1 .1 1.9.2 2.9 0 .3 0 .7.1 1 0 .1.1.3.2.3s.3 0 .3-.2c.1 0 .1-.2.1-.3m-5.3-19.4c-.1 0-.2 0-.3-.1.2 0 .3 0 .3.1m-.1.6c0-.1.1-.1.1-.2 0-.2 0-.2.2-.2-.1-.1-.2-.3-.1-.5v-.2l.3.3v.2c-.1.1-.1.2-.1.3-.1 0-.1.2-.2.3-.1-.1-.1 0-.2 0 0 .2 0 .3-.1.3-.1.1-.2-.1-.3-.1.1.2-.1.2-.1.4 0-.1.1-.2.1-.4.1-.2.3-.4.2-.6.2.1.2.2.2.4m1.4 1.2q0 .15 0 0c-.2-.1-.2-.4 0-.5.1 0 .2.1.2.2-.1.2-.1.3-.2.3m.3 3.5c-.1.1-.1.3-.2.3s-.1-.2-.2-.3c0-.1.1-.2.1-.3.1 0 .3.2.3.3m-.3-5.2c-.1 0-.1-.1-.1-.1 0-.1-.1-.1 0-.2-.1-.2-.2-.3-.4-.5 0 0-.1 0-.1-.1 0 0-.1-.1 0-.1s.1 0 .1.1c.2.2.4.4.5.6 0 0 0 .1.1.1 0 .1-.1.2-.1.2m-.5 3.9c.1-.1.1 0 .1.1.1.3.1.4-.2.8.1-.2.1-.3 0-.5s.1-.3.1-.4m.1-1.8c.1 0 .2.1.2.2s-.1.1-.1.2h-.1c-.2 0-.2-.3 0-.4m-.1 3.7s.1-.1.2 0 .1.2.1.3-.1.2-.1.3c-.1-.1-.1-.2-.2-.3q-.15-.15 0-.3m0-7c.1-.1.1-.3.3-.4 0 .3-.2.4-.3.4m-.2-.7c.2 0 .3.1.4.2-.2 0-.4 0-.4-.2m.1 2.5c0-.1.1-.2.1-.3.3.3.3.4.1.7-.2.1-.3.3-.4.5-.1.1-.1.2-.2.1q-.15-.15 0-.3c.1-.2.3-.5.4-.7m-1 5.5c.2-.1 0-.3.1-.3.1.2.3.4.1.6.2 0 .3 0 .3.2 0 .1.1.2.2.3s.1.3.1.5c0 0 0 .1-.1.1s-.1 0-.1-.1c-.1-.3-.3-.5-.4-.8v-.2c-.1-.1-.3-.3-.2-.3m.3-2c.1.1-.1.2-.1.3h-.1c-.1-.1-.2-.1-.1-.2.1-.2 0-.4-.1-.6.2.1.3.3.4.5m-.2-2c.1-.1.1-.1.1 0s.1.2.1.3c-.2 0-.2.1-.2.2-.2-.2-.2-.3 0-.5m.4.8c0-.1-.1-.2-.1-.4.1.2.2.4.4.6.1.1.1.3-.1.4-.1.1-.1 0-.1 0-.1-.1-.1-.3-.2-.5.1 0 .1 0 .1-.1m.3 2.3c-.1 0-.1-.2-.2-.1-.1-.1 0-.2.1-.2 0 0 0-.1.1-.1 0 .1.1.3 0 .4m-.2 2.7h.2c.1.2-.1.3-.1.4-.1-.1-.3-.2-.1-.4m-.9-2.8c-.1.1 0 .2-.2.2-.1 0-.2-.3-.2-.4.1-.1.1-.2.2-.3 0 .1 0 .2.1.3s.1.2.1.2m-.1 2.4c-.1-.2-.3-.3-.1-.5h.2c.1.2-.1.3-.1.5m-.1-4.1-.1-.1c0-.1.1-.2.2-.3.1.1.1.1.1.2s-.1.1-.2.2m.2-1.8c-.1.1-.1.2-.2 0-.1-.1-.1 0-.2 0 0 .1-.1.1-.1.2-.1.1-.2.3 0 .4 0 .1-.1.4-.1.4-.1 0-.1-.1-.1-.2 0-.3.2-.6.4-.8 0-.1.1-.2.2-.3s.1-.1.2 0c0 .1 0 .2-.1.3m-.5 4.7c-.1-.2-.3-.3-.1-.5h.2c.1.3-.1.4-.1.5m.2-6.9.3.3s.1.1 0 .1c0 .1-.1.2-.1.2-.1 0-.1-.1-.1-.2 0-.2-.1-.3-.1-.4m.3-1.3h-.5c.2-.2.2-.2.5 0m-.8.9c.3-.3.5-.6.9-.8h.1c-.1.2-.3.2-.3.4-.2 0-.3.1-.4.2s-.1.1 0 .2c0 .1.1.1 0 .2h-.1c-.1-.1-.2-.1-.2-.2m-.4-.5c.1-.1.2-.2.4-.3-.1.2-.3.2-.4.4h-.1c0-.1 0-.1.1-.1m0 1.1c.1 0 .1.1.2.2 0 .1-.1.2-.1.2-.1 0-.1-.1-.2-.2 0-.1 0-.2.1-.2m-.1 1.9c.2-.2.3-.5.5-.7 0-.1.1-.1.1-.2 0 0 0-.1.1-.1s.1.1.1.2 0 .2-.2.2c0 0-.1 0-.1.1-.1.2-.3.3-.2.6 0 .1-.1.3-.2.3s-.2-.4-.1-.4m.1 1.7c.1 0 .1.1.1.2s-.1.2-.2.2-.2-.2-.2-.3c.1-.2.3-.1.3-.1m-.3 3.6c.1-.1.1-.2.2-.2s.2.3.2.4-.1.2-.1.2c-.2 0-.3-.3-.3-.4m-.2-7.8c.1 0 .1.1.1.1s0 .1-.1.1-.1-.1 0-.2q-.15 0 0 0m0 1.4c.1.1.2.2 0 .3 0 0-.1.1-.1 0-.1-.1-.2 0-.2 0-.1.2-.2.3-.2.4q-.15.15 0 .3c.1.1.1.1 0 .2 0 .1-.1.1-.1 0-.1-.2-.1-.1-.2 0 0 0 0 .1-.1.1.2-.4.4-.7.7-1 0-.1.1-.2.1-.2 0-.1 0-.2.1-.1m0 1.8v.3c-.1 0-.1-.1-.1-.1-.1-.1-.1-.1 0-.2 0 .1 0 0 .1 0m-.5 1.1c0 .1 0 .2-.2.1h-.1c-.1 0-.1 0 0-.1 0-.1.1-.1.1-.2 0 0 .1-.2.1-.1.1.1.2.2.1.3m-.7-.9c-.1-.1 0-.2.1-.3.3.2 0 .5-.1.7-.1-.1-.2-.2-.1-.3zm0 1.7c0 .1-.1.2 0 .2 0 .1.1.1 0 .2h-.1c0-.1-.1-.1-.1-.2.1-.1.1-.2.2-.2m.1 1.7c.2.3.2.3 0 .6-.3-.3-.3-.3 0-.6m0 1.9c0 .1-.1.1-.1.2-.1-.1 0-.2.1-.2 0-.1 0 0 0 0m.1-8.4c-.1 0-.1-.1-.1-.1 0-.1.1-.1.1-.2.1 0 .1 0 .1.1s-.1.1-.1.2m-.3-.6s-.1.1-.1 0c-.1-.1 0-.1 0-.1.1-.1.2-.1.3-.2-.1.1-.1.2-.2.3m.7.9c.1-.1.1-.1.1 0 .2.2 0 .3-.1.4-.2-.2-.2-.2 0-.4m-.2-.8c.1-.2.3-.3.6-.4-.1.3-.4.3-.6.4m-2.6 0v-.2c.1-.3.3-.7.4-1 .2-.3.5-.5.9-.5.5 0 1 .2 1.5.4-1 .2-2 .6-2.8 1.3m.8 6.6c-.2-.3-.2-.3 0-.6-.1.1 0 .2.1.3 0 .1 0 .2-.1.3m.2 1.5c0 .1-.1.2-.1.2-.1 0-.1-.1-.1-.2s.1-.2.1-.2 0 .1.1.2m-.2-3.3c-.3-.1-.1-.3 0-.5.1.2.1.4 0 .5m0-4.4q.15.15 0 0c0 .2 0 .3-.1.3-.1-.1 0-.2.1-.3m.2.6c.1.1.1.2-.1.4-.1-.2-.1-.2.1-.4m-.1-.7c.2-.2.3-.4.6-.5-.2.2-.4.3-.6.5m-.5 7.2q-.15-.3 0-.6.3.3 0 .6m0 1.6c-.1-.1-.2-.3 0-.4.1.1.2.2 0 .4m0-3.8s0 .1 0 0c.1.2.1.3 0 .4 0-.1-.1-.2-.1-.3 0 0 0-.1.1-.1m0-1.8c.2.2 0 .4 0 .6-.2-.2 0-.4 0-.6m-.1 7c.1 0 .2 0 .2.1s.1.2 0 .4c0 .1-.1.1-.1.2 0-.2-.1-.4-.1-.5-.1-.1 0-.2 0-.2m-.1 3.2s0-.1-.1-.2h.1c.2.1.3.1.5.2-.1.1-.4.1-.5 0m.5-1.9c-.1-.1 0-.1-.1-.2 0 0 0-.2.1-.1.1 0 .1.1.1.1.1.1 0 .2-.1.2m.2-1.6c-.2-.2-.2-.5 0-.7.1.4.1.4 0 .7m0-7.3s0 .1-.1.1c0 .1 0 .1-.1 0-.1 0-.1-.1 0-.1 0-.1.1-.2.1-.3.2-.2.3-.5.5-.7 0-.1 0-.1.1-.1 0 .2-.1.3-.2.4-.1.2-.3.4-.3.7m.3.5c.1.2.2.3 0 .5-.2-.2-.2-.2 0-.5m0 1.8c.1.1.2.1.2.2s-.1.2-.1.2h-.1l-.1-.1c0-.1.1-.2.1-.3m.1 2.3c-.1-.1-.2-.3 0-.5-.2.2 0 .3 0 .5m0 3.5c-.1.1-.1.1-.1 0q-.15-.15 0-.3c0-.1 0-.2.1-.2.1.1.1.3 0 .5m0-1.7c-.1 0-.1-.2-.2-.3 0-.1 0-.2.1-.2s.1.2.2.3c0 0 0 .2-.1.2m.4 2.6h-.2c-.1 0-.1-.1-.1-.2s.1-.2.2-.3c.1.1.1.2.2.3s0 .2-.1.2m0-1.8c-.2-.2-.2-.2.1-.6 0 .2.2.4-.1.6m0-5.3c-.1 0-.1-.1-.1-.2s.1-.2.1-.2c.1 0 .1.1.1.2s0 .2-.1.2m0 1.8c-.2-.3-.2-.3 0-.6q.3.3 0 .6m.1 1.8c-.1.1-.1.1-.1 0-.1-.2-.1-.3.1-.4.1.1.1.2 0 .4m.1-5.9c.1.1.1.2-.1.2-.1 0-.1.1-.1.3-.1-.1-.2-.2-.1-.4.2-.3.4-.6.5-.8 0 0 .1-.2.1-.1.1 0 .1.1.1.2 0 0 0 .1-.1.1-.1-.2-.1-.2-.3 0 0 .1-.1.2-.1.2 0 .1 0 .2.1.3m.3 8c.2.4.2.4.1.7-.3-.3-.3-.5-.1-.7m.5 2.3-.2.2s-.1 0-.1-.1c-.1-.1-.1-.2-.2-.3.1 0 .3-.1.4-.1 0 0 .1 0 .2.1zm.3-.9c0 .1-.2 0-.2.1-.1-.1-.1-.2-.1-.3s.1-.2.1-.2.2.3.2.4m-.1-2.6c-.1.2-.2.4 0 .6.1.1-.1.2-.1.4-.1-.1-.2-.2-.2-.3v-.1c.2-.2.1-.6.4-.8 0 .1 0 .2-.1.2m-.3-1.2c0-.1.1-.2.2-.2s.1.1.1.1c0 .1-.1.2-.1.2-.1.1-.2 0-.2-.1m.3-2.1c-.1.1-.1.2 0 .2.1.2 0 .3-.1.5-.1-.1-.1-.2-.2-.3 0-.1 0-.1.1-.2.1 0 .1-.1.1-.2 0-.2.2-.3.3-.5.1-.1.1-.1.2-.3 0-.1.1-.2.1-.1.1.1.2.2.1.3-.1.2-.2.3-.3.5 0 0-.1.1-.1 0-.1.1-.1 0-.2.1m.5 1.3c-.1 0-.1.1-.1.2-.1-.1-.2-.2-.1-.3 0 0 .1-.1.1 0 .1 0 .1 0 .1.1m-.1 1.4.2.3c0 .1-.1.2-.2.2-.1-.1-.2-.2-.2-.3zm.5 4.3c-.1-.1-.1-.1-.1-.2l.1-.1c.1.1.1.1.2.1zm.1-1v-.2c.1 0 .1.1.1.1.1.1 0 .1-.1.1m.1-1.6c-.1-.1-.1-.2-.2-.2-.1-.1-.1-.1-.2 0s-.2.3-.3.4c0 .1 0 .2.1.2q.3.3 0 .6c-.1-.2-.2-.3-.3-.4v-.1c.3-.5.6-1 .9-1.4.1.1 0 .1 0 .1-.1.1-.1.3 0 .4.2.1.1.2 0 .4m.4-4.8c-.2 0-.2.1-.3.2 0 .1-.1.1-.2.1.2-.2.3-.4.4-.7 0 0 0-.1.1-.1s.1.1 0 .1v.2c.1.1 0 .2 0 .2m.2 6c-.1-.3-.3-.6 0-.9l.1-.1c0 .1-.1.2-.1.3s.1.2.1.3v.1c-.2.2 0 .4.1.6-.1-.1-.2-.2-.2-.3m.3-2.2c0-.1 0-.1.1-.1 0 0 .1 0 .1-.1v.1c-.1.1-.1.1-.2.1 0 .1 0 0 0 0m.2 3.5c0-.1-.1-.1-.1-.1h.1s.1 0 .2.1zm.1-2.8v-.3s.1-.1.2 0 .1.2.1.3-.1.2-.1.3c-.1 0-.1-.2-.2-.3m.5 3.5s-.1-.1-.1-.2c.1 0 .1-.1.2-.1s.1.1.2.1c-.2.1-.3.2-.3.2m.4-.9c.1 0 .3.1.4.1-.2.1-.3.1-.4-.1m.5-2c-.1-.1-.1-.2-.2-.2-.1-.1-.1-.1-.2 0s-.2.3-.3.4c0 .1 0 .2.1.2q.3.3 0 .6c-.1-.2-.2-.3-.3-.4v-.1c.3-.5.6-1 .9-1.4.1.1 0 .1 0 .1-.1.1-.1.3 0 .4.2.1.1.3 0 .4m.4 2.7c-.1 0-.1 0-.2.1 0-.1.1-.2.1-.3.1.1.2.2.1.2m.3-4.7c0 .2-.1.4-.2.5h-.1zm0 1.7s0 .1-.1.1c0 0-.1 0-.1-.1-.1-.1-.2-.3-.1-.5.1-.1.1-.1.2 0 0 .1.1.1.1.2zm.1-5.3-.3-.6c.2.1.2.3.3.6.1 0 .1.1.1.2.2.3.1.5-.1.7 0-.1.1-.2 0-.3s-.1-.3 0-.4.1-.2 0-.2m.6 6.1c.1.1.2.3.3.4v.1h-.1c0-.2-.2-.3-.2-.5-.2-.1-.1.1-.2.2-.1-.1-.2-.3 0-.5 0-.1.1 0 .1 0 0 .1.1.2.1.3m.3-1.1c0 .1 0 .2-.1.2s-.1-.1-.1-.2 0-.2.1-.2c0 .1.1.1.1.2m-.1-1.9c0 .1-.1.2-.1.3-.1-.1-.1-.2-.2-.3v-.3s.1-.1.2 0 .1.2.1.3m-.3-2s.1 0 0 0c.1 0 .2.1.2.2s0 .1-.1.2c-.1 0 0-.1-.1-.1-.1-.1 0-.2 0-.3m.3-3.8c.1-.2-.2-.4 0-.6.2.3.2.3 0 .6m-.1 2.1v.2c-.1.1-.1.2-.1.3-.1-.2-.2-.4-.1-.6 0-.1-.2-.6-.2-.6-.2.1-.2-.1-.3-.1s-.1-.1 0-.1c0-.1.1-.2.1-.2l.1.1c.2.3.4.7.5 1m-.2-1.9c.1.1.1.2.1.3s0 .2-.1.2-.1-.1-.1-.2c0-.2 0-.3.1-.3m-.6-2c.3.2.5.6.7.9-.3-.2-.4-.6-.7-.9m0 1c.3.4.3.3 0 .8.1-.3 0-.6 0-.8m.3 5.5c0 .1 0 .2.1.3v.2c-.1 0-.1-.1-.1-.1-.2-.2-.1-.3 0-.4m.7 6.8c-.2 0-.5.1-.7.1v-.1c.2-.1.5-.2.7-.2h.2zm0-8c-.1-.2-.1-.5 0-.7 0-.1 0-.2-.1-.3.3.4.3.7.1 1m-2.7-7.2c.7-.2 1.3-.5 2-.4q.3 0 .6.3c.3.4.5.8.5 1.3-1-.8-2-1.1-3.1-1.2"/>
</svg>