<svg xmlns="http://www.w3.org/2000/svg" viewBox="0 0 24 24" xml:space="preserve">
    <path d="M19.6 7.5c-.3-.3-.3-.5-.2-.8.2-.6.1-1.3-.3-1.8-.7-1.2-1.5-2.2-2.3-3.4Q16.2.3 15 .3C13.4.1 11.9.1 10.3 0c-1 0-1.9.4-2.9.9C6.2 2 5.1 3 3.8 4.1c-.3.1-.4.6-.4.9.1 1 .2 1.9.5 3.1-.9.3-.9.9-1 1.7-.2 1.2-.3 2.3-.3 3.5 0 .8.1 1.5.4 2.2.7 1.7 1.8 3.2 3 4.6.2.3.2.4.1.8-.4 1.1.3 2.1 1.3 2.5 3 .8 5.9.9 8.8 0 1.2-.3 1.7-1.5 1.2-2.5-.2-.4-.2-.5.1-.8.8-1 1.7-2 2.5-3 .3-.4.6-.9.7-1.4.1-1.5.2-3 .5-4.6.4-1.7-.4-2.7-1.6-3.6m-3.2-4.7c.1.3.4.8.5 1.1-.1 0-.3.2-.5.2-.3-.4-.4-.8-.5-1.1.1-.1.4-.2.5-.2m-.7 3c.3-.5 1.2-1.6 1.3-1.6 0 .1.2.3.2.4.1.5-.9 1.7-1.4 2 .1-.3-.2-.6-.1-.8m-1.9.3c.2.2.5.6.7.7-.2.1-.6.5-.7.5s-.7-.5-.8-.7c.1-.1.6-.5.8-.5m-2-2.8c.3.4 1 1.4 1.2 1.7l-1.1.2c-.4-.3-.9-1.2-.8-1.6.1 0 .5-.3.7-.3m-.2 8.1c.3 1 .4 1.9.2 3 .7.1 1.2.7 1.4 1.3-.7-.1-1.3-.7-1.4-1.3-.1-.1-.3-.1-.3-.3-.3-.4-.3-2.2.1-2.7m-.3 8.8c.1.1-.1.4.1.5-.9.1-1.6-.3-1.6-1.2 0-.5.1-1 .4-1.7 0-.1.1-.3.3-.4l.5-.2c0 .7-.2 1.4-.4 1.9-.1.5-.1.9.7 1.1m-.1-11.7c-1.6.1-1.7-.4-2.5-1.5.8-.2 2 .7 2.5 1.5M9.3 1c0 .6-.7 1.6-1 2-.3-.5 0-1.6 1-2M6.7 4.4c.1-.5.5-1.1.8-1.6l.4.1c0 .1.2.4.2.5s-.1.3-.1.4c-.3.5-.4 1-.2 1.6-.2.8.1 1 .5 1.4-1.4 0-2.2-1.2-1.6-2.4m.3 6.1c-.1 1.7.9 2.8 2.2 3.7.7.4 1.2.9 1.9 1.4.1.1.2 1 .2 1.2-.3-.1-.6-.6-.8-.8-1.2-.8-2.3-1.5-3.4-2.4-.3-.4-.7-.9-.8-1.5-.1-.4-.1-.7-.1-1 0-1.3.2-1.3-1-1.7-.1 0-.3-.3-.5-.4 1.2-.4 2.3.4 2.3 1.5m2.3 7-.2.7c-.3 0-.7-.5-1-.7l.2-.7c.3.1.7.6 1 .7m-5.6-3.9c1-.5 1.7-.3 2.6-.3-.3.5-1.6 1.3-2.6.3M5 14.8c.3.3 1 .5 1.1.6.1.7.4 1.2 1 1.3.3 0 .5.2.7.3-1.5.5-2.6-.6-2.8-2.2m11.8 7.3c-.2.3-.6.6-.9.7-3 .8-5.5.7-8.5 0-.1-.1-.3-.5-.4-.8-.1-.4-.2-.7-.2-1.2 3.5 1.4 6.7 1.6 10.1.2 0 .4 0 .7-.1 1.1m-1-2.8c-.4-.8.3-1.9 1.4-2.9.1 1.4-.8 1.9-1.4 2.9m1.6-3.4c-1.4-1.3-2.6-2.4-4.1-3.7-.4-.3-.5-.6-.3-1 .4-.9 1-2.7 2.2-3.4.3.8.1 1.9-.9 3.7 1.2 1.6 2.9 2.6 4 4.6-.3-.1-.8 0-.9-.2m-.8-7c1.1-.3 2.6 1.7 2.7 2.6-.9 0-3-1.3-2.7-2.6"/>
  </svg>
  